<svg width="115" height="73" viewBox="0 0 115 73" fill="none" xmlns="http://www.w3.org/2000/svg">
<path d="M66.611 39.7393V41.531C66.611 42.4614 67.3651 43.2158 68.2958 43.2158C69.2265 43.2158 69.9806 42.4614 69.9806 41.531V39.7393C69.9806 38.8088 69.2265 38.0545 68.2958 38.0545C67.3654 38.0545 66.611 38.8086 66.611 39.7393ZM9.26424 38.8879C9.39138 38.8879 9.52055 38.8733 9.64972 38.8432C10.5557 38.6311 11.1182 37.7247 10.9061 36.8187C10.7477 36.1423 10.4184 34.735 10.8812 34.1298C11.211 33.6985 12.087 33.4368 13.3477 33.3925C18.3538 33.2169 19.889 30.9036 21.3734 28.6664C22.1688 27.4677 22.9912 26.2284 24.4889 25.0677C25.9636 23.9249 26.5958 23.9036 26.6982 23.9094C26.7912 24.0083 27.4498 24.8525 27.2065 28.5655C27.0787 30.5131 27.4548 31.9443 28.356 32.9401C29.6169 34.3336 31.4536 34.3962 32.9292 34.4468C33.5932 34.4695 34.2204 34.491 34.6751 34.6177C36.1081 35.0167 37.3654 34.8907 38.3753 34.7893C38.9978 34.7269 39.6414 34.6624 39.778 34.8118C40.451 35.5459 41.2195 35.9022 42.0628 35.8833C43.6525 35.8395 44.7297 34.5263 46.3603 32.5385C46.5095 32.3567 46.6643 32.1683 46.8251 31.9733C46.9134 31.8664 46.9772 31.8097 47.0131 31.7819C47.2459 31.834 47.7625 32.1481 48.1123 32.3608C49.3579 33.1178 51.2404 34.2621 53.5849 33.2575C56.1653 32.1519 56.8327 31.3322 58.0966 29.5834C58.5539 28.9505 59.1232 28.1627 59.9898 27.1299C61.5158 25.3103 63.724 24.7813 64.6353 25.2027C64.7795 25.2694 65.2185 25.4725 65.0109 26.688C64.7142 28.4253 65.0491 29.733 66.0061 30.574C67.6644 32.0312 70.2497 31.2374 72.1376 30.6576C72.5693 30.525 73.0588 30.3748 73.2727 30.3426C73.4362 30.328 73.9275 30.4478 74.2534 30.5282C75.8868 30.9316 79.2856 31.7698 80.9722 26.9504C82.1104 23.6983 82.9436 23.5759 85.4175 23.2126C85.6801 23.174 85.9522 23.134 86.2343 23.0888C91.7209 22.211 92.7459 18.6185 93.5694 15.7317C93.8033 14.912 94.0241 14.1379 94.3314 13.4292C94.8328 12.2716 95.7594 11.6774 96.9323 10.9253C98.4387 9.95918 100.314 8.75691 101.104 6.07069C101.483 4.78261 102.568 4.04423 103.151 3.85418C103.134 4.18283 103.025 4.76868 102.664 5.65286C101.397 8.76343 101.136 10.4808 101.735 11.7785C102.282 12.9669 103.379 13.3303 104.034 13.5473C104.287 13.6311 104.526 13.7102 104.641 13.7897C104.641 13.7899 104.651 13.7987 104.67 13.8196C105.289 14.5148 106.354 14.5768 107.049 13.9582C107.744 13.3398 107.806 12.2747 107.187 11.5797C106.996 11.3643 106.788 11.1787 106.57 11.0273C106.045 10.6641 105.518 10.4893 105.094 10.3489C105.002 10.3186 104.891 10.2818 104.8 10.2481C104.805 9.91582 104.931 9.02041 105.785 6.92431C106.769 4.5081 106.766 2.67977 105.777 1.49031C105.044 0.609954 103.888 0.257722 102.605 0.522795C100.816 0.892774 98.6146 2.59104 97.8708 5.12002C97.4354 6.59949 96.4616 7.22443 95.1131 8.08906C93.724 8.97998 92.1495 9.98973 91.2395 12.0896C90.8443 13.0012 90.5824 13.9196 90.329 14.8075C89.5704 17.4666 89.0695 19.2233 85.7019 19.7619C85.4346 19.8048 85.1767 19.8426 84.9278 19.879C82.1899 20.2811 79.6034 20.6607 77.7915 25.8375C77.1171 27.7649 76.6402 27.6472 75.0606 27.257C74.3303 27.0768 73.5753 26.8906 72.7769 27.0099C72.3101 27.08 71.7714 27.2451 71.1483 27.4365C70.5139 27.6312 68.8985 28.1264 68.285 28.0302C68.2695 27.9053 68.2623 27.6638 68.3322 27.255C68.7341 24.9021 67.8809 22.9918 66.0506 22.1445C63.5153 20.9707 59.7184 22.2094 57.408 24.9643C56.4637 26.0905 55.8549 26.9326 55.3659 27.6095C54.3345 29.0361 54.0897 29.3751 52.2578 30.1602C51.576 30.4525 51.0319 30.1921 49.8629 29.4814C48.7067 28.7785 46.3015 27.3161 44.2276 29.8269C44.0641 30.0248 43.9068 30.2164 43.7554 30.401C43.183 31.0988 42.4999 31.9317 42.0639 32.3332C40.8187 31.1574 39.2847 31.3115 38.0393 31.4362C37.1971 31.5206 36.4021 31.6004 35.5793 31.3713C34.7373 31.1367 33.8767 31.1073 33.0444 31.0788C32.1603 31.0487 31.1582 31.0143 30.8545 30.6787C30.7397 30.5518 30.4818 30.1133 30.5689 28.7857C30.7495 26.0314 30.7084 22.2202 28.2763 20.9276C25.936 19.6842 23.2931 21.7311 22.4249 22.4039C20.4896 23.9038 19.4231 25.5113 18.5658 26.803C17.2364 28.8063 16.5043 29.9098 13.2296 30.0245C10.8765 30.1072 9.18606 30.7995 8.20462 32.0825C6.77457 33.9523 7.3492 36.4067 7.62528 37.5865C7.80701 38.3636 8.49934 38.8879 9.26424 38.8879ZM59.078 40.5032C58.6802 40.9599 58.106 41.2219 57.5026 41.2219C56.8992 41.2219 56.3251 40.9602 55.9272 40.5035C55.3158 39.8019 54.2517 39.7289 53.5503 40.3402C52.8488 40.9514 52.7758 42.0155 53.387 42.7173C54.4251 43.9085 55.925 44.5917 57.5026 44.5917C59.08 44.5917 60.5802 43.9085 61.6182 42.7175C62.2297 42.016 62.1564 40.9518 61.4549 40.3404C60.7538 39.7287 59.6895 39.8017 59.078 40.5032ZM111.66 28.3391C111.185 27.7519 110.72 27.2224 110.271 26.7102C108.23 24.3854 107.62 23.5121 108.211 22.0611C108.346 21.7318 108.464 21.3787 108.564 21.0121C108.808 20.1142 108.277 19.1884 107.38 18.9445C106.482 18.7012 105.556 19.2307 105.312 20.1288C105.248 20.3635 105.174 20.5855 105.091 20.789C103.664 24.2913 105.735 26.6512 107.738 28.933C108.166 29.4196 108.607 29.9228 109.038 30.4561C110.52 32.2909 111.506 35.2914 111.636 36.7212C108.151 35.8153 106.205 34.1992 105.849 31.9113L105.755 31.3036C105.345 28.6039 104.92 25.8124 102.553 25.2209C101.066 24.8496 99.1488 25.3431 97.8888 26.4218C96.7817 27.37 96.2449 28.6936 96.3772 30.1481C96.4183 30.6014 96.4792 31.077 96.5436 31.5804C96.7689 33.3375 97.1093 35.9927 96.1292 36.6631C93.7051 38.3218 93.445 40.9013 93.1693 43.6322C93.1098 44.2233 93.0483 44.8343 92.9638 45.4666C92.7237 47.2694 93.3708 48.2261 93.9563 48.7113C95.431 49.9333 97.5455 49.2345 99.2442 48.6724C99.6223 48.5475 99.979 48.4294 100.242 48.3636C100.852 48.211 101.714 49.2886 102.949 51.7579C103.31 52.4803 103.711 53.0998 104.065 53.6466C105.233 55.452 106.156 56.8778 105.119 61.7459C104.666 63.8686 104.009 64.5629 103.798 64.6764C103.638 64.5719 103.346 64.0923 103.523 63.517C104.271 61.0862 104.253 59.2003 103.47 57.9116C102.959 57.0723 102.165 56.5337 101.174 56.3537C100.173 56.1722 99.5421 56.3106 98.8475 56.8648C98.6719 57.0047 98.2051 57.3772 95.852 57.7788C93.2107 58.2299 92.6998 57.8107 91.4643 56.7983C90.9032 56.3385 90.2048 55.7658 89.2359 55.2072C87.5945 54.2605 86.4039 54.5171 85.6936 54.8992C83.6139 56.0186 83.3207 59.2035 83.0146 64.3073C82.9714 65.0257 82.8173 65.5266 82.5806 65.718C82.0446 66.1516 80.3373 65.8914 78.9652 65.6827C77.3368 65.4345 75.4912 65.1537 73.806 65.539C71.5135 66.063 69.8579 65.4666 68.5272 64.9873C67.7365 64.7024 67.0536 64.4567 66.3239 64.4567C64.5637 64.4567 64.0771 66.1662 63.8693 66.8962C63.797 67.1505 63.6656 67.6124 63.5553 67.7597C63.4722 67.7725 63.1637 67.7923 62.4918 67.556C59.0827 66.3582 57.0462 67.6357 55.6985 68.4808C54.9725 68.9364 54.539 69.1941 54.076 69.1941C52.5588 69.1941 48.9253 68.8088 47.9607 65.2395C46.9934 61.6606 44.2052 61.3883 42.7073 61.2419C42.5431 61.2259 42.3451 61.2066 42.1796 61.1839C41.578 57.6771 37.9303 57.507 33.3556 57.2943C30.3342 57.1537 28.9423 57.9675 28.5501 60.1036C28.5364 60.1773 28.5196 60.2701 28.5043 60.3345C28.4459 60.3642 28.3311 60.4125 28.1309 60.4624C26.0056 60.9934 23.8201 58.3074 23.5564 57.4924C23.1076 56.105 21.5434 53.9218 16.1112 54.892C13.0869 55.432 12.891 58.3878 12.7859 59.9758C12.7704 60.2094 12.7504 60.5118 12.7219 60.762C10.6745 60.9402 9.72812 63.0812 9.08812 64.6135C8.63615 63.0661 7.73018 60.9898 4.97432 59.4665C4.26312 59.0734 3.40657 58.4253 3.36546 57.5697C3.34345 57.1063 3.55483 56.7091 3.71724 56.5139C4.95905 56.5453 8.63188 56.4321 10.1621 54.1141C10.8041 53.1414 11.2817 51.4595 9.9103 48.9696C9.22515 47.7258 8.99422 46.4456 9.20426 45.0558C9.34331 44.1356 8.71006 43.2771 7.79016 43.138C6.87072 42.9999 6.0117 43.6322 5.87265 44.5521C5.55231 46.6718 5.9178 48.705 6.959 50.5953C7.38289 51.365 7.52913 51.9863 7.35032 52.2575C6.87588 52.9761 4.64275 53.2409 3.6339 53.1405C2.05357 52.983 0.694511 54.52 0.218278 56.0469C-0.0712804 56.9755 -0.701615 60.1796 3.34457 62.4158C5.34992 63.524 5.70125 64.9163 6.04113 66.2628C6.31114 67.3323 6.71909 68.9485 8.45082 69.2951C10.6087 69.7267 11.5333 67.5063 12.1452 66.0372C12.3849 65.4624 12.8185 64.4221 13.1264 64.1296C14.0297 64.1846 14.6428 63.8407 15.0013 63.5356C15.9823 62.7013 16.0703 61.3717 16.1481 60.1984C16.2572 58.5514 16.4012 58.2629 16.7036 58.209C19.1441 57.7732 20.2358 58.1746 20.3506 58.5298C21.0975 60.838 24.8101 64.7653 28.9482 63.7311C31.4237 63.1124 31.7211 61.4908 31.8642 60.7115C31.8649 60.7081 31.8653 60.7048 31.866 60.7014C32.0778 60.6643 32.4826 60.6266 33.1988 60.6598C35.3328 60.7591 37.1805 60.8674 38.1786 61.1877C38.8282 61.3962 38.8435 61.5487 38.8803 61.9176C39.1162 64.2765 41.3204 64.4917 42.3797 64.595C43.7799 64.7316 44.362 64.8383 44.7079 66.1181C46.3242 72.0984 52.287 72.5632 54.076 72.5632C55.531 72.5632 56.6166 71.8821 57.4891 71.3349C58.6984 70.5763 59.4972 70.0751 61.3747 70.7348C62.8883 71.2663 64.1126 71.2722 65.1174 70.7519C66.363 70.107 66.8004 68.8793 67.0475 68.0367C67.1641 68.0776 67.28 68.1194 67.3854 68.1573C68.9448 68.7189 71.3015 69.5672 74.5567 68.8236C75.6181 68.5812 77.0616 68.8009 78.4582 69.0137C80.6949 69.354 83.0071 69.7058 84.6989 68.3382C85.7095 67.5212 86.2745 66.2327 86.3778 64.509C86.4965 62.5306 86.711 58.9548 87.2515 57.9752C87.3256 58.0055 87.4249 58.0527 87.5518 58.1259C88.2819 58.5471 88.8138 58.9829 89.3285 59.4048C91.1015 60.8577 92.552 61.7603 96.419 61.1006C98.9257 60.6726 99.9766 60.1867 100.628 59.7384C100.731 60.016 100.814 60.8627 100.302 62.5263C99.8166 64.1055 100.223 65.8571 101.338 66.9886C102.259 67.9226 103.518 68.273 104.709 67.9255C105.943 67.5652 107.588 66.3223 108.413 62.4486C109.741 56.2176 108.293 53.98 106.892 51.8163C106.557 51.2971 106.239 50.8067 105.962 50.2514C104.833 47.9938 102.943 44.2163 99.4242 45.0951C99.0396 45.1912 98.6247 45.3285 98.1853 45.4736C97.7126 45.6299 96.8431 45.9175 96.2925 45.9992C96.2954 45.9718 96.2988 45.9429 96.303 45.9121C96.3945 45.2263 96.4587 44.5878 96.5212 43.9703C96.7768 41.4364 96.9475 40.1854 98.0312 39.4441C100.712 37.6095 100.234 33.8773 99.8851 31.152C99.8245 30.68 99.7676 30.2344 99.7317 29.8428C99.6985 29.476 99.8025 29.2181 100.08 28.9807C100.563 28.5669 101.309 28.4393 101.649 28.4752C101.985 28.931 102.247 30.654 102.423 31.8102L102.518 32.4297C102.943 35.156 104.878 38.7163 111.684 40.1957C112.86 40.452 113.918 40.029 114.512 39.0658C116.074 36.5361 113.553 30.683 111.66 28.3391ZM46.7096 38.0545C45.7792 38.0545 45.0249 38.8088 45.0249 39.7393V41.531C45.0249 42.4614 45.7792 43.2158 46.7096 43.2158C47.6401 43.2158 48.3944 42.4614 48.3944 41.531V39.7393C48.3944 38.8086 47.6401 38.0545 46.7096 38.0545Z" fill="#58A193"/>
</svg>
