<svg width="115" height="107" viewBox="0 0 115 107" fill="none" xmlns="http://www.w3.org/2000/svg">
<path d="M110.36 7.34119H81.4759C80.6934 3.50127 77.2903 0.602905 73.2227 0.602905H41.7773C37.7097 0.602905 34.3066 3.50127 33.5241 7.34119H4.63976C2.08145 7.34119 0 9.42242 0 11.9803V84.6695C0 87.2276 2.08145 89.3086 4.63976 89.3086H45.0726L42.8 96.2908H38.0809C34.8556 96.2908 32.2312 98.9147 32.2312 102.14C32.2312 104.487 34.1413 106.397 36.4889 106.397H78.5106C80.8583 106.397 82.7683 104.487 82.7683 102.14C82.7683 98.9147 80.144 96.2908 76.9186 96.2908H72.1996L69.927 89.3086H110.36C112.918 89.3086 115 87.2273 115 84.6695V11.9803C115 9.42242 112.919 7.34119 110.36 7.34119ZM64.2338 3.97205H73.2227C76.0092 3.97205 78.2764 6.23903 78.2764 9.02576C78.2764 11.8125 76.0092 14.0795 73.2227 14.0795H64.2338C65.2937 12.6707 65.9229 10.9206 65.9229 9.02576C65.9229 7.13095 65.2937 5.3808 64.2338 3.97205ZM57.5 3.97205C60.2865 3.97205 62.5537 6.23903 62.5537 9.02576C62.5537 11.8125 60.2865 14.0795 57.5 14.0795C54.7135 14.0795 52.4463 11.8125 52.4463 9.02576C52.4463 6.23903 54.7135 3.97205 57.5 3.97205ZM41.7773 3.97205H50.7662C49.7063 5.3808 49.0771 7.13095 49.0771 9.02576C49.0771 10.9206 49.7063 12.6707 50.7662 14.0795H41.7773C38.9908 14.0795 36.7236 11.8125 36.7236 9.02576C36.7236 6.23903 38.9908 3.97205 41.7773 3.97205ZM76.9188 99.6601C78.2867 99.6601 79.3994 100.773 79.3994 102.14C79.3994 102.63 79.001 103.028 78.5109 103.028H36.4891C35.999 103.028 35.6006 102.63 35.6006 102.14C35.6006 100.773 36.7133 99.6601 38.0812 99.6601H49.9318C50.8623 99.6601 51.6164 98.9059 51.6164 97.9756C51.6164 97.0452 50.8623 96.291 49.9318 96.291H46.3434L48.616 89.3088H66.3842L68.6568 96.291H57.7055C56.775 96.291 56.0209 97.0452 56.0209 97.9756C56.0209 98.9059 56.775 99.6601 57.7055 99.6601H76.9188ZM111.631 20.8153H33.916C32.9855 20.8153 32.2314 21.5695 32.2314 22.4999C32.2314 23.4302 32.9855 24.1844 33.916 24.1844H111.631V72.4656H98.8843C97.9537 72.4656 97.1997 73.2198 97.1997 74.1501C97.1997 75.0805 97.9537 75.8347 98.8843 75.8347H111.631V84.6695C111.631 85.3698 111.061 85.9394 110.36 85.9394H4.63976C3.9392 85.9394 3.36914 85.3696 3.36914 84.6695V75.8347H91.1337C92.0642 75.8347 92.8183 75.0805 92.8183 74.1501C92.8183 73.2198 92.0642 72.4656 91.1337 72.4656H84.6959C83.4655 68.9152 80.4659 66.1868 76.7387 65.3437C76.7266 65.3407 76.7144 65.3383 76.7021 65.3358L63.9312 62.7451C63.7949 61.703 63.7684 60.6666 63.8537 59.5723C68.33 55.829 70.51 52.5124 70.51 49.448C70.51 49.1158 70.4966 48.7886 70.4678 48.4541C70.3959 47.721 70.3553 44.3409 70.3694 40.2339C70.3809 36.8877 69.0856 33.7386 66.7227 31.367C64.3576 28.9933 61.2094 27.6856 57.8585 27.6852C57.8578 27.6852 57.8571 27.6852 57.8565 27.6852C54.5053 27.6852 51.3567 28.9924 48.9911 31.3659C46.6273 33.7375 45.3318 36.887 45.3432 40.2341C45.3574 44.3433 45.3167 47.7264 45.2433 48.478C45.2163 48.7832 45.2026 49.1096 45.2026 49.4478C45.2026 52.5081 47.376 55.8191 51.8349 59.5516C51.9178 60.6221 51.8879 61.6351 51.7448 62.6903L38.7447 65.3349C38.7325 65.3374 38.7206 65.3398 38.7085 65.3428C34.9818 66.1866 31.9828 68.9154 30.7531 72.4656H3.36914V24.1844H26.2058C27.1364 24.1844 27.8904 23.4302 27.8904 22.4999C27.8904 21.5695 27.1364 20.8153 26.2058 20.8153H3.36914V11.9803C3.36914 11.2799 3.9392 10.7103 4.63976 10.7103H33.5238C34.3064 14.5503 37.7094 17.4486 41.7771 17.4486H73.2224C77.2901 17.4486 80.6932 14.5503 81.4757 10.7103H110.36C111.06 10.7103 111.63 11.2802 111.63 11.9803V20.8153H111.631ZM48.7124 40.2224C48.7041 37.7776 49.6506 35.4769 51.3774 33.7443C53.1064 32.0096 55.4071 31.0543 57.8565 31.0543H57.858C60.3067 31.0548 62.6076 32.0103 64.3362 33.7452C66.0626 35.4776 67.0086 37.778 67.0003 40.2222C66.9884 43.6769 67.0124 47.7401 67.1131 48.7616C67.1315 48.9797 67.1409 49.2106 67.1409 49.448C67.1409 51.4727 65.0145 54.3079 61.1504 57.4347C60.2265 58.1858 59.0626 58.5993 57.8648 58.5993C57.8612 58.5993 57.8576 58.5993 57.854 58.5993C56.6474 58.5998 55.4875 58.1869 54.556 57.4291C50.6968 54.307 48.5716 51.4725 48.5716 49.448C48.5716 49.2079 48.5808 48.9809 48.5974 48.7904C48.7003 47.7451 48.7243 43.6792 48.7124 40.2224ZM60.6546 63.6469C60.5713 63.7368 60.4871 63.8271 60.4022 63.9172C59.6655 64.7022 58.7679 65.1341 57.8648 65.1341C57.86 65.1341 57.8551 65.1341 57.8502 65.1341C56.9544 65.1341 56.0549 64.701 55.3137 63.9106C55.2144 63.8053 55.116 63.6997 55.0187 63.5944C55.1279 62.9075 55.196 62.2321 55.2276 61.5565C56.0677 61.8263 56.9486 61.9682 57.8378 61.9682H57.8715C58.7511 61.9682 59.6214 61.8303 60.4514 61.5682C60.4794 62.2631 60.5455 62.952 60.6546 63.6469ZM52.6118 65.9521C52.6943 66.0411 52.7758 66.1302 52.8593 66.2185C54.2411 67.6922 56.0129 68.503 57.8412 68.503H57.874C59.7088 68.503 61.4787 67.6935 62.8563 66.2255C62.925 66.1527 62.9921 66.0792 63.0602 66.006L76.0132 68.6337C78.1892 69.1315 80.0061 70.5557 81.0308 72.4656H34.4182C35.4427 70.5553 37.2593 69.1306 39.4356 68.6326L52.6118 65.9521Z" fill="#58A193"/>
</svg>
