<svg width="115" height="115" viewBox="0 0 115 115" fill="none" xmlns="http://www.w3.org/2000/svg">
<path d="M46.9503 27.8547H33.8051C31.0729 27.8547 28.85 30.0774 28.85 32.8098V51.0524H28.2792C25.5471 51.0524 23.3241 53.2751 23.3241 56.0075C23.3241 58.7396 25.5468 60.9626 28.2792 60.9626H28.85V64.0469H28.2792C25.5471 64.0469 23.3241 66.2699 23.3241 69.002C23.3241 71.7342 25.5468 73.9571 28.2792 73.9571H28.85V78.5398C28.85 81.272 31.0727 83.4949 33.8051 83.4949C36.5372 83.4949 38.7602 81.2722 38.7602 78.5398V73.9571H46.177C48.9091 73.9571 51.1321 71.7344 51.1321 69.002C51.1321 66.2699 48.9094 64.0469 46.177 64.0469H38.7602V60.9626H46.9503C56.0782 60.9626 63.504 53.5365 63.504 44.4089C63.504 35.2805 56.0782 27.8547 46.9503 27.8547ZM46.9503 57.593H37.0756C36.1453 57.593 35.391 58.3472 35.391 59.2776V65.731C35.391 66.6614 36.1453 67.4156 37.0756 67.4156H46.177C47.0514 67.4156 47.763 68.1272 47.763 69.0016C47.763 69.876 47.0516 70.5875 46.177 70.5875H37.0756C36.1453 70.5875 35.391 71.3418 35.391 72.2721V78.5394C35.391 79.4138 34.6797 80.1254 33.8051 80.1254C32.9307 80.1254 32.2191 79.414 32.2191 78.5394V72.2721C32.2191 71.3418 31.4649 70.5875 30.5345 70.5875H28.2792C27.4048 70.5875 26.6933 69.8762 26.6933 69.0016C26.6933 68.1272 27.4046 67.4156 28.2792 67.4156H30.5345C31.4649 67.4156 32.2191 66.6614 32.2191 65.731V59.2776C32.2191 58.3472 31.4649 57.593 30.5345 57.593H28.2792C27.4048 57.593 26.6933 56.8816 26.6933 56.007C26.6933 55.1324 27.4046 54.4211 28.2792 54.4211H30.5345C31.4649 54.4211 32.2191 53.6668 32.2191 52.7365V32.8094C32.2191 31.935 32.9304 31.2234 33.8051 31.2234H46.9503C54.2203 31.2234 60.1349 37.138 60.1349 44.408C60.1349 51.6779 54.2203 57.593 46.9503 57.593ZM24.3744 100.315C17.9811 95.3613 12.6918 88.9327 9.07849 81.7246C5.29 74.1671 3.36914 66.0167 3.36914 57.5C3.36914 43.041 8.99965 29.4476 19.2236 19.2236C29.4476 8.99965 43.041 3.36914 57.5 3.36914C65.0249 3.36914 72.3071 4.88323 79.1445 7.86941C85.75 10.7543 91.6359 14.8714 96.6386 20.1059C97.2815 20.7784 98.3477 20.8026 99.0202 20.1598C99.6929 19.517 99.7169 18.4508 99.0741 17.7781C93.7614 12.219 87.5096 7.8465 80.4926 4.78193C73.2276 1.60888 65.4918 0 57.5 0C42.1412 0 27.7015 5.9809 16.8412 16.8414C5.98112 27.7015 0 42.1412 0 57.5C0 66.5457 2.04103 75.2039 6.06647 83.2342C9.90415 90.8902 15.5214 97.7174 22.3107 102.978C22.6177 103.216 22.9809 103.331 23.3412 103.331C23.8443 103.331 24.342 103.107 24.674 102.678C25.2438 101.943 25.1098 100.885 24.3744 100.315ZM104.319 24.1125C103.778 23.3556 102.726 23.1801 101.969 23.721C101.212 24.2619 101.037 25.3139 101.578 26.0709C108.154 35.2776 111.631 46.1455 111.631 57.5C111.631 71.959 106 85.5524 95.7764 95.7764C85.5524 106 71.959 111.631 57.5 111.631C48.2418 111.631 39.1061 109.254 31.0803 104.757C30.2688 104.302 29.2421 104.592 28.7873 105.403C28.3327 106.215 28.6217 107.242 29.4335 107.696C37.9612 112.474 47.6664 115 57.5 115C72.8588 115 87.2985 109.019 98.1588 98.1588C109.019 87.2985 115 72.8588 115 57.5C115 45.4392 111.307 33.894 104.319 24.1125ZM57.5 10.2168C31.428 10.2168 10.2168 31.428 10.2168 57.5C10.2168 83.572 31.428 104.783 57.5 104.783C64.4806 104.783 71.112 103.261 77.0819 100.534C77.2086 100.492 77.331 100.435 77.4467 100.363C82.7016 97.9081 87.4332 94.5152 91.4252 90.3997C91.5701 90.2921 91.6981 90.1602 91.8037 90.0077C99.8436 81.5278 104.783 70.0804 104.783 57.5002C104.783 31.428 83.572 10.2168 57.5 10.2168ZM88.3382 57.3845C88.1208 61.0264 88.9741 64.7356 89.5021 66.6223C89.5205 66.6879 89.5428 66.7521 89.5688 66.815C89.9394 67.7065 90.2539 68.644 90.5036 69.6017C90.5066 69.613 90.5097 69.6244 90.5129 69.6356L90.5097 69.6246L90.5284 69.7012C91.9241 75.157 91.37 81.6713 88.9788 88.0851C87.1527 89.9639 85.1615 91.6815 83.0269 93.2115C83.6861 92.0997 84.295 90.9488 84.8442 89.7681C87.8962 83.2063 88.8593 76.2309 87.486 70.6304C87.469 70.5606 87.4474 70.4916 87.4213 70.4245C87.1388 69.6934 86.8546 68.8446 86.5993 67.9697C86.5795 67.9021 86.5557 67.8359 86.5276 67.7714C86.2828 67.2072 86.0166 66.6744 85.7368 66.1881C82.9747 61.3866 79.0418 61.0041 76.9433 61.2027C73.2404 61.5531 69.6586 64.0968 68.6119 67.12C68.4733 67.52 68.1871 67.8424 67.8062 68.0274C67.425 68.2125 66.9947 68.2379 66.5944 68.0995C66.1942 67.961 65.8719 67.6748 65.6866 67.2936C65.5015 66.9127 65.4759 66.4824 65.6145 66.0821C66.873 62.4473 70.6239 59.3297 74.9488 58.3243C75.4472 58.2084 75.8659 57.8724 76.0867 57.4108C76.3077 56.9493 76.3068 56.4124 76.0846 55.9515C75.0788 53.8663 74.3605 51.5 73.9497 48.9184C73.0798 43.4518 74.0149 38.8249 76.583 35.8901C77.1587 35.2322 78.1627 35.1651 78.8208 35.741C79.1395 36.0199 79.3307 36.4063 79.359 36.829C79.3871 37.2517 79.2491 37.66 78.9702 37.9787C77.0615 40.1599 76.3735 43.9657 77.0823 48.4195C77.3822 50.3037 78.0107 52.418 78.8067 54.22C79.7687 56.3981 80.8542 57.914 82.0327 58.7259C82.1259 58.7902 82.2252 58.8445 82.3292 58.889C82.4757 58.9512 82.6205 59.0168 82.7645 59.0853C83.2764 59.3292 83.8763 59.2993 84.361 59.0058C84.846 58.7124 85.151 58.1949 85.1725 57.6287C85.3769 52.2659 87.3515 48.6879 91.0411 46.9941C91.4261 46.8176 91.8569 46.8014 92.254 46.9485C92.6511 47.0959 92.9672 47.389 93.1439 47.774C93.3207 48.1589 93.3369 48.5895 93.1895 48.9869C93.0424 49.384 92.7491 49.7 92.3641 49.8768C90.686 50.6474 88.6255 52.5752 88.3382 57.3845ZM94.1848 81.6093C94.9123 77.1311 94.7912 72.7705 93.7913 68.8616C93.7816 68.8194 93.7713 68.7774 93.7596 68.7356C93.4804 67.6678 93.1309 66.62 92.7201 65.6192C91.2285 60.2241 91.1101 54.1601 93.7695 52.9391C94.9725 52.387 95.8882 51.3996 96.3484 50.1586C96.8087 48.9177 96.7579 47.5718 96.2058 46.369C95.6537 45.1662 94.6661 44.2503 93.4254 43.7903C92.1842 43.3301 90.8383 43.3806 89.6355 43.9329C85.7628 45.7107 83.2575 49.0423 82.267 53.6729C81.4512 52.0656 80.7304 49.9064 80.4097 47.891C79.8749 44.5299 80.2947 41.5824 81.5058 40.1983C82.3775 39.2022 82.809 37.9264 82.7209 36.6057C82.6329 35.285 82.0359 34.0777 81.0397 33.2062C78.9834 31.4071 75.8468 31.6162 74.0481 33.6723C70.8094 37.3736 69.5932 42.9763 70.623 49.4487C70.9721 51.6426 71.5233 53.7079 72.2665 55.6131C67.6851 57.2727 63.8582 60.8586 62.4311 64.9806C61.998 66.2312 62.078 67.5758 62.6564 68.7662C63.2345 69.9568 64.2419 70.851 65.4927 71.284C66.7431 71.7169 68.0876 71.6369 69.2783 71.0588C70.4689 70.4804 71.3631 69.4733 71.7959 68.2226C72.4067 66.4583 74.9095 64.7798 77.2614 64.5574C79.5575 64.34 81.4274 65.4536 82.8166 67.8689C83.0185 68.2199 83.2133 68.6067 83.3961 69.02C83.6609 69.9178 83.9437 70.7625 84.2384 71.5343C85.3958 76.3883 84.5055 82.5089 81.7895 88.3478C80.1882 91.7904 78.0461 94.952 75.5849 97.5155C70.0669 100.019 63.9436 101.415 57.5 101.415C33.2858 101.415 13.5859 81.7149 13.5859 57.5005C13.5859 33.286 33.2858 13.5859 57.5 13.5859C81.7142 13.5859 101.414 33.2858 101.414 57.5C101.414 66.3979 98.7513 74.6842 94.1848 81.6093ZM46.9503 34.3956H37.0756C36.1453 34.3956 35.391 35.1498 35.391 36.0801V52.7367C35.391 53.667 36.1453 54.4213 37.0756 54.4213H46.9503C52.4714 54.4213 56.9632 49.9295 56.9632 44.4084C56.9632 38.8873 52.4714 34.3956 46.9503 34.3956ZM46.9503 51.0521H38.7602V37.7647H46.9503C50.6137 37.7647 53.594 40.745 53.594 44.4084C53.594 48.0718 50.6137 51.0521 46.9503 51.0521Z" fill="#58A193"/>
</svg>
